<svg xmlns="http://www.w3.org/2000/svg" xml:space="preserve" style="fill-rule:evenodd;clip-rule:evenodd;stroke-linejoin:round;stroke-miterlimit:2" viewBox="0 0 512 512">
  <path d="M0 0h512v512H0z" style="fill:none"/>
  <path d="M446.355 180.391c2.88-1.34 3.479-3.71 1.821-7.246l-6.93-14.775-8.278 3.858 7.108 15.158c1.479 3.151 3.724 4.195 6.279 3.005M231.074 47.073c2.558-.45 4.164-2.501 3.792-4.606-.401-2.263-2.306-3.456-4.94-2.992l-18.025 3.17 1.34 7.566 17.833-3.138Zm-81.685 48.489c6.364-4.875 7.709-11.5 3.785-16.586-2.034-2.637-4.812-3.955-8.308-3.923-2.801.049-5.951 1.164-8.748 3.308-6.211 4.757-7.674 11.674-3.847 16.633 3.948 5.117 10.725 5.469 17.118.568m82.82-44.305-18.217 3.204 1.404 7.917 17.489-3.078c3.895-.684 5.527-2.137 5.052-4.828-.498-2.808-2.33-3.814-5.728-3.215m174.67 90.22c4.654 6.517 11.248 8.102 16.492 4.38 2.718-1.929 4.142-4.646 4.239-8.129.055-2.792-.948-5.971-2.994-8.835-4.543-6.36-11.423-8.072-16.538-4.444-5.276 3.743-5.877 10.479-1.199 17.028M267.442 37.931l-7.989 13.409 14.285.851-6.296-14.26Zm-7.07 301.764h-9.28v2.262h9.28v-2.262Zm1.331-2.651h-11.942c-.735 0-1.33.591-1.33 1.326v4.913c0 .734.595 1.328 1.33 1.328h11.942c.736 0 1.33-.594 1.33-1.328v-4.913c0-.735-.594-1.326-1.33-1.326m3.994-67.355h-19.93a1.326 1.326 0 1 0 0 2.651h19.93a1.326 1.326 0 1 0 0-2.651m-19.93 19.003h19.93a1.327 1.327 0 1 0 0-2.652h-19.93a1.327 1.327 0 1 0 0 2.652m0-3.977h19.93a1.328 1.328 0 1 0 0-2.653h-19.93a1.328 1.328 0 1 0 0 2.653m1.293-19.469h17.344c.735 0 1.33-.593 1.33-1.325v-5.26c0-.731-.595-1.325-1.33-1.325H247.06c-.735 0-1.33.594-1.33 1.325v5.26c0 .732.595 1.325 1.33 1.325m217.418 3.851-11.651-19.126-11.651 19.126 11.651 19.124 11.651-19.124Zm-26.349-39.685 4.166-1.181-6.761-23.717 8.103-2.294 4.492 15.763 4.168-1.179-4.493-15.763 7.07-2.001 6.464 22.675 4.167-1.179-7.737-27.137-27.672 7.834 8.033 28.179Zm-3.076-52.543-6.715 11.489 2.282 4.867 6.964-11.52c2.423 3.479 6.182 5.139 10.791 2.993 5.04-2.348 6.696-7.044 4.2-12.365l-9.376-19.991-26.059 12.14 1.97 4.201 9.934-4.628 6.009 12.814Zm-12.876 97.068c0-64.154-25.912-121.133-66.007-157.076v209.522l47.072 38.869c12.087-27.296 18.935-58.356 18.935-91.315M356.17 431.01l-.02.017V326.366l-66.778-55.141v30.724h1.836c.735 0 1.33.595 1.33 1.325v6.191c0 .73-.595 1.325-1.33 1.325h-2.259l12.512 70.71h10.588v8.56h.424v-2.373a1.33 1.33 0 0 1 1.331-1.327c.736 0 1.331.595 1.331 1.327v2.373h2.389v-2.373a1.33 1.33 0 0 1 2.66 0v2.373h2.388v-2.373a1.33 1.33 0 0 1 2.66 0v2.373h2.391v-2.373a1.329 1.329 0 0 1 2.659 0v2.373h2.39v-2.373a1.33 1.33 0 0 1 2.659 0v20.771h2.662c.733 0 1.33.595 1.33 1.325v9.282c0 .731-.597 1.325-1.33 1.325h-.444v1.624l14.866 12.274 3.755 3.103v-6.381Zm-66.819 35.821v-29.204h-1.106a1.327 1.327 0 0 1-1.248.882h-10.643c-.579 0-1.067-.37-1.248-.882H236.36a1.327 1.327 0 0 1-1.25.882h-10.642c-.578 0-1.066-.37-1.248-.882h-.644v29.196a141.912 141.912 0 0 0 33.406 3.979c11.43 0 22.59-1.37 33.369-3.971M155.78 271.915l64.228 53.038 2.507-14.163h-2.259c-.735 0-1.33-.595-1.33-1.325v-6.191c0-.73.595-1.325 1.33-1.325h2.299v-85.9l-66.775-55.142v111.008Zm-.054-154.991c-8.309 7.457-16.009 15.811-22.995 24.953l22.995 18.988v-43.941Zm0 154.948-60.13-49.655c-3.779 16.483-5.808 33.817-5.808 51.72 0 64.112 25.882 121.063 65.938 157.007V271.872Zm-66.458-93.549-26.396-11.398-1.85 4.255 26.395 11.398 1.851-4.255Zm-10.88 8.913-3.322 3.159c2.296 3.799 2.601 7.725 1.145 12.536-2.396 7.918-8.097 11.531-14.297 9.667-5.973-1.796-8.851-8.191-6.589-15.664 1.489-4.922 3.966-8.172 7.9-10.058l-.263-4.48c-5.743 2.109-9.829 6.694-11.823 13.28-1.387 4.588-1.284 9.18.141 12.837 1.718 4.472 4.82 7.383 9.234 8.71 4.488 1.349 8.716.683 12.578-2.071 3.168-2.237 5.813-6.043 7.226-10.704 2.015-6.66 1.573-11.92-1.93-17.212m-6.973 81.861-11.652-19.126-11.653 19.126 11.653 19.124 11.652-19.124Zm-5.998-108.831 3.781 2.105 6.542-11.675 21.333 11.875 2.27-4.048-21.334-11.875 6.543-11.674-3.781-2.105-15.354 27.397Zm17.842-31.432 23.172-1.296 8.928 7.007 2.88-3.644-8.928-7.007-4.176-22.753-3.573 4.524 3.212 17.572-17.94 1.072-3.575 4.525Zm45.17-30.895c2.857 3.704 6.688 5.564 11.438 5.569 3.882.023 8.314-1.524 12.187-4.492 3.873-2.969 6.445-6.736 7.45-10.505 1.214-4.577.371-8.775-2.486-12.479-2.786-3.611-6.672-5.478-11.446-5.515-3.938-.031-8.339 1.493-12.119 4.39-3.812 2.921-6.389 6.745-7.402 10.568-1.221 4.632-.434 8.823 2.378 12.464m30.547-39.207 12.597 25.776 4.184-2.032-5.586-11.428 14.783-7.173-1.896-3.881-14.783 7.175-3.218-6.586 21.266-10.323-1.897-3.88-25.45 12.352Zm47.589-19.531 5 28.233 22.036-3.876c6.911-1.217 10.006-4.414 9.149-9.25-.641-3.626-2.673-5.761-5.998-6.302 2.226-1.881 3.003-3.948 2.533-6.599-.822-4.64-4.69-7.137-10.379-6.136l-22.341 3.93Zm41.64 22.22 5.072.302 3.635-6.21 18.851 1.121 2.867 6.597 5.072.303-13.111-29.501-5.846-.348-16.54 27.736Zm41.146 19.618a141.912 141.912 0 0 0-33.369-3.971 141.861 141.861 0 0 0-33.406 3.981v135.017l16.059 13.26 1.484-47.583h-1.944c-.785 0-1.423-.595-1.423-1.327v-5.303c0-.732.638-1.326 1.423-1.326h2.165l.122-3.985c-.745-.042-1.338-.613-1.338-1.318v-3.978h-1.422c-.788 0-1.424-.594-1.424-1.326v-5.303c0-.732.636-1.325 1.424-1.325h6.168v-4.42c0-.732.636-1.325 1.422-1.325h4.074l-8.013-14.64 7.592-3.24-2.848-17.678s6.299-1.924 3.117-8.482c-3.75-7.723 2.894-13.028 6.691-11.552 0 0 1.601 1.719 2.117 4.177.015 0 .024-.006.04-.006 1.826 0 3.308 1.984 3.308 4.432 0 .914-.207 1.763-.562 2.468.151-.013.301-.022.458-.022.841 0 1.585.22 2.186.546.065.035.149.055.208.093-.257.387-.72 1.416-.487 3.487.225 2 1.102 4.961 3.487 9.278 5.484 9.932-3.408 29.696-4.071 31.139h3.584c.785 0 1.422.593 1.422 1.325v4.42h6.168c.787 0 1.424.593 1.424 1.325v5.303c0 .732-.637 1.326-1.424 1.326h-1.422v3.978c0 .705-.592 1.276-1.338 1.318l.121 3.985h2.165c.787 0 1.423.594 1.423 1.326v5.303c0 .732-.636 1.327-1.423 1.327h-1.943l2.026 64.964h.391c.736 0 1.331.595 1.331 1.327v5.303c0 .732-.595 1.326-1.331 1.326h-.142l.114 3.647 15.616 12.898V81.039Zm-63.552 220.47h59.866v-2.183h-59.866v2.183Zm5.321-5.275h49.224v-3.069H231.12v3.069Zm40.541-19.003-.703-22.568h-30.452l-.703 22.568h31.858Zm-31.941 2.651-.331 10.577h32.686l-.331-10.577H239.72Zm-.688-27.872h33.4v-2.651h-33.4v2.651Zm1.722-5.303h29.955l-.093-3.049-14.883-13.917-14.884 13.915-.095 3.051Zm16.922-18.783 12.822 11.988-.726-23.298-12.096 11.31Zm-15.093-39.821-.659 21.108 11.747-10.777-11.088-10.331Zm14.999 10.346 11.97 11.152-.669-21.519-11.301 10.367Zm11.191-13.84-.089-2.866h-25.903l-.09 2.864c.066.042.129.089.189.143l12.753 11.882 12.96-11.887a1.15 1.15 0 0 1 .18-.136m-27.081 32.005-.726 23.298 12.822-11.988-12.096-11.31Zm14.041 9.491 13.796-12.898-13.91-12.957-13.81 12.671-.006.16 13.93 13.024Zm-16.134-47.014h32.268v-2.653h-32.268v2.653Zm28.741-9.282h-25.216l-.123 3.978h25.464l-.125-3.978Zm-26.369-2.651h27.522v-2.21h-27.522v2.21Zm-2.847-5.303h33.216v-2.652h-33.216v2.652Zm7.592-5.745h18.033v-2.653h-18.033v2.653Zm4.287-5.452 5.88.149h.851c-.024-.101-.461-.676-5.457-3.875-5.821-3.727-1.274 3.726-1.274 3.726m-.361-14.687h.499c.749-.466.999-1.395.999-2.328-1.861 0-2.15 1.112-1.498 2.328m7.472 9.086c-.998-.466-1.747-1.628-2.746-2.094 0 2.094 0 4.186 1.248 5.35.749-.931 1.747-1.861 1.498-3.256m-8.391-18.33c1.289 4.705 2.29 4.686 3.289 6.546 3.497-.931 1.997 4.186 5.494 4.418 0 2.092-3.745 1.395-2.498 3.953.501.464.997.697 1.498.464 1.247-4.417 2.748-8.835 2.247-13.717-.748-.466-2.497-1.628-1.247-2.79.499.464 1.496 1.162 1.996.464 0-1.628 1.747-3.722-.5-4.883l1.747-1.627-1.495-1.396-1 .931c1 2.558-2.996 2.789-3.246 5.115-2.996 1.627-.815 4.224-1.563 7.013-1.499-.465-1.721-3.56-3.219-4.491 0-3.486-1.459-6.01.288-9.499 1.249.699.997 2.094 1.498 3.256.249 0 .498-.231.75-.464.999-2.792-.501-5.581-2.748-7.44-3.245 4.184-1.039 9.266-1.291 14.147m5.785-29.726c-.997-.233-1.746 0-2.496.231-2.996 2.559-3.178 5.692-2.429 9.18 2.359.641 1.293-3.285 1.042-5.377-.249-3.023 3.883-1.477 3.883-4.034m-1.498 8.138c.999-.931.501-2.558.501-3.72-.501-.465-1.001-1.164-1.748-.465-.501 1.395-.501 3.487 1.247 4.185m1.21 17.434c.716-.67.716-2.344.716-3.013-1.078.669-1.795 2.343-.716 3.013m-2.709-15.575c-.498 1.395-.927 2.063-.427 3.691 1.996-1.163 1.678 2.355 2.677 3.285 1.995-.231.998-2.326 1.995-3.256-.247-2.789-4.743-.697-4.245-3.72m5.887-5.965c-.758-.168-1.156-.192-1.716.477l.641 4.735c1.077.073 2.163-.803 2.503-2.135.37-1.442-.269-2.819-1.428-3.077m3.351 7.128c-.247-.232-.749-.697-1.247-.697-1.749.697-3.497 2.325-3.246 4.184.999 1.165 2.248 3.256 4.246 3.256.497-2.091-2.248-2.789-2.248-4.883.499-.465 1-.465 1.497-.465.5-.464 1.248-.697.998-1.395m1.748 8.138c0-1.86-2.497-.232-2.246.698.251.697.998.697 1.746.697.5-.466.5-.93.5-1.395m-2.31 26.472c-1.186 1.791-3.16 3.581-2.37 5.884 4.345-.258 1.582-4.605 2.37-5.884m2.161-5.994c-.749 1.628-2.249 3.953-.749 5.347l.749-1.161c.499-1.163 1.996-3.255 0-4.186m2.396-11.875c-.249-1.162-.497-3.254-2.495-2.79 0 1.861-1.25 3.953 0 5.581-3.745 3.023-2.249 8.836-2.995 12.556 1.495-5.115 3.993-9.999 5.49-15.347m-17.712 17.006c.319-.299.639-.892 1.276-.892.955.297.316 1.186.636 1.483.637 1.188.955 3.562 2.869 2.673 1.594-1.782 1.912-4.749 1.594-6.531-1.276.89-.32 2.968-2.232 3.267-2.231-1.485 1.275-4.156-1.594-4.751-.957 1.781-4.461 2.078-2.549 4.751m-3.094-4.97-.251.467c-.955 2.688.832 1.805 1.831 2.27.25 0 .25-.465.25-.696-.25-1.164-1.747-.93-1.83-2.041m2.891.56c.549-.348.298-1.278.298-1.742l-1.812.542 1.514 1.2Zm42.05 167.105h-68.292v3.535h68.292v-3.535Zm.516 29.621-.867-4.889h-11.863v4.889h12.73Zm1.363 7.709-.895-5.056h-2.324v5.056h3.219Zm1.364 7.709-.895-5.059h-14.562v5.059h15.457Zm1.364 7.706-.894-5.056h-5.053v5.056h5.947Zm1.365 7.709-.896-5.054h-17.29v5.054h18.186Zm1.362 7.709-.893-5.057h-7.781v5.057h8.674Zm1.546 8.734-1.076-6.082h-19.889v6.082h20.965Zm10.631 2.65H202.074v2.38c.19-.104.404-.17.636-.17a1.33 1.33 0 0 1 1.331 1.327v2.373h2.389v-2.373a1.33 1.33 0 0 1 2.66 0v2.373h2.389v-2.373a1.329 1.329 0 0 1 2.659 0v2.373h2.391v-2.373c0-.732.595-1.327 1.331-1.327.734 0 1.329.595 1.329 1.327v2.373h2.392v-2.373a1.33 1.33 0 0 1 2.661 0v2.373h2.387v-2.373a1.33 1.33 0 0 1 2.662 0v2.373h2.388v-2.373a1.33 1.33 0 0 1 2.66 0v2.373h2.391v-2.373a1.329 1.329 0 0 1 2.659 0v2.373h2.389v-2.373c0-.732.595-1.327 1.331-1.327.734 0 1.329.595 1.329 1.327v2.373h2.389v-2.373a1.33 1.33 0 0 1 2.661 0v2.373h2.389v-2.373c0-.732.595-1.327 1.33-1.327.735 0 1.33.595 1.33 1.327v2.373h2.389v-2.373a1.33 1.33 0 0 1 2.66 0v2.373h2.39v-2.373c0-.732.595-1.327 1.331-1.327.734 0 1.33.595 1.33 1.327v2.373h2.389v-2.373a1.329 1.329 0 0 1 2.66 0v2.373h2.389v-2.373c0-.732.595-1.327 1.331-1.327.734 0 1.33.595 1.33 1.327v2.373h2.389v-2.373a1.33 1.33 0 0 1 2.662 0v2.373h2.387v-2.373a1.33 1.33 0 0 1 1.33-1.327 1.33 1.33 0 0 1 1.332 1.327v2.373h2.388v-2.373a1.329 1.329 0 0 1 2.659 0v2.373h2.393v-2.373a1.329 1.329 0 0 1 2.659 0v2.373h2.389v-2.373a1.33 1.33 0 0 1 1.333-1.327 1.33 1.33 0 0 1 1.329 1.327v2.373h2.388v-2.373a1.33 1.33 0 0 1 2.662 0v2.373h2.387v-2.373a1.33 1.33 0 0 1 1.331-1.327c.232 0 .446.066.636.17v-2.38Zm-1.967 8.565h-2.387v15.744h2.387v-15.744Zm-5.049 0h-2.388v15.744h2.388v-15.744Zm-5.05 0h-2.389v15.744h2.389v-15.744Zm-5.048 0h-2.392v15.744h2.392v-15.744Zm-5.052 0h-2.388v15.744h2.388v-15.744Zm-5.05 0h-2.387v15.744h2.387v-15.744Zm-5.049 0h-2.389v15.744h2.389v-15.744Zm-5.05 0h-2.389v15.744h2.389v-15.744Zm-5.049 0h-2.389v15.744h2.389v-15.744Zm-5.05 0h-2.39v15.744h2.39v-15.744Zm-5.05 0h-2.389v15.744h2.389v-15.744Zm-5.049 0h-2.388v15.744h2.388v-15.744Zm-5.05 0h-2.389v15.744h2.389v-15.744Zm-5.049 0h-2.389v15.744h2.389v-15.744Zm-5.048 0h-2.389v15.744h2.389v-15.744Zm-5.051 0h-2.389v15.744h2.389v-15.744Zm-5.05 0h-2.389v15.744h2.389v-15.744Zm-5.048 0h-2.392v15.744h2.392v-15.744Zm-5.052 0h-2.389v15.744h2.389v-15.744Zm-5.05 0h-2.389v15.744h2.389v-15.744Zm-5.049 0h-2.389v15.744h2.389v-15.744Zm16.707 27.675h-35.919v14.583h35.919V420.39Zm-38.578.885h-7.982v14.583h7.982v-14.583Zm14.432-12.817h2.389v-15.745h-2.389v15.745Zm-20.198 0h2.388v-15.745h-2.388v15.745Zm5.05 0h2.389v-15.745h-2.389v15.745Zm5.049 0h2.389v-15.745h-2.389v15.745Zm5.05 0h2.389v-15.745h-2.389v15.745Zm30.291-92.111-.626 3.534H233.8v-3.534h-9.567Zm30.169-4.572h-29.36l-.34 1.917h29.7v-1.917Zm-17.942 8.106h38.543v-3.534H236.46v3.534Zm50.302-6.189-.34-1.917h-29.359v1.917h29.699Zm1.095 6.189-.625-3.534h-9.567v3.534h10.192Zm-1.978 2.652h-28.815v4.152h28.815v-4.152Zm-31.477 0h-28.815v4.152h28.815v-4.152Zm20.601 6.802H236.46v4.889h4.213a1.317 1.317 0 0 1-.757-1.192c0-.73.596-1.325 1.33-1.325h28.973c.733 0 1.328.595 1.328 1.325 0 .529-.31.98-.756 1.192h4.212v-4.889Zm10.876 7.542h-17.25v5.055h17.25v-5.055Zm-10.876 7.706h-6.374v5.058h6.374v-5.058Zm10.876 7.709h-17.25v5.055h17.25v-5.055Zm-10.876 7.711h-6.374v5.054h6.374v-5.054Zm-41.332 12.763v-.342c0-.735.595-1.325 1.33-1.325h8.426v-3.39h-17.84v5.057h8.084Zm-19.889 2.652-1.076 6.082h20.965v-6.082h-19.889Zm1.364-7.709-.895 5.057h8.675v-5.057h-7.78Zm1.365-7.706-.895 5.054H233.8v-5.054h-17.289Zm1.363-7.711-.895 5.056h5.947v-5.056h-5.052Zm25.553-15.415h-17.84v5.055h17.84v-5.055Zm0 7.706h-6.967v5.058h6.967v-5.058Zm-6.967 20.474h6.967v-5.054h-6.967v5.054Zm6.967-12.765h-17.84v5.055h17.84v-5.055Zm-20.501-10.359v-5.056h-2.325l-.894 5.056h3.219Zm-3.689 2.65-.895 5.059H233.8v-5.059h-14.563Zm22.276 36.917h28.438v-2.651h-28.438v2.651Zm31.1-5.305v5.305h2.519v-7.825H267.3a1.327 1.327 0 0 1-1.331-1.325v-37.401h-19.882v37.475c0 .731-.596 1.325-1.331 1.325h-8.426v7.751h2.523v-5.305h9.602c-.004-.044-.012-.087-.012-.131v-27.577c0-.732.595-1.327 1.329-1.327h11.92c.736 0 1.331.595 1.331 1.327v27.577c0 .044-.009.087-.013.131h9.603Zm5.181-3.845v.416h8.085v-5.057h-17.25v3.316h7.834c.735 0 1.331.592 1.331 1.325m-55.858-43.015-.866 4.889h12.73v-4.889h-11.864Zm3.862 106.523h7.983v-14.583h-7.983v14.583Zm10.643-.885h38.582V420.39h-38.582v14.583Zm41.244.885h7.983v-14.583h-7.983v14.583Zm57.203-14.583h-7.981v14.583h7.981v-14.583Zm-10.642-.885h-35.919v14.583h35.919V420.39Zm8.426-27.675h-2.389v15.744h2.389v-15.744Zm-5.049 0h-2.389v15.744h2.389v-15.744Zm-5.051 0h-2.388v15.744h2.388v-15.744Zm-5.048 0h-2.389v15.744h2.389v-15.744Zm-5.051 0h-2.389v15.744h2.389v-15.744Zm-137.671 25.024h161.86v-6.631h-161.86v6.631Zm115.302-352.42 25.35 7.09 1.171-4.156-20.871-5.836 6.601-23.448-4.479-1.252-7.772 27.602Zm31.603-16.524 12.195 5.573-10.191 22.138 4.23 1.932 10.187-22.136 12.197 5.576 1.807-3.923-28.62-13.085-1.805 3.925Zm40.856 16.042-15.717 24.012 3.897 2.532 15.717-24.01-3.897-2.534Zm17.677 12.088L360.9 98.149l3.444 3.117 15.816-17.353.085.077-1.902 23.528 23.403-4.067.088.077-15.814 17.354 3.445 3.117 19.34-21.223-4.279-3.87-21.719 3.772 1.71-21.88-4.277-3.873Zm25.028 43.589c-3.821 2.709-5.825 6.456-6.006 11.186-.166 3.866 1.222 8.337 4.055 12.304 2.833 3.967 6.518 6.666 10.259 7.807 4.544 1.377 8.788.693 12.605-2.018 3.723-2.64 5.74-6.443 5.954-11.196.174-3.919-1.192-8.358-3.958-12.229-2.788-3.905-6.528-6.613-10.324-7.763-4.599-1.385-8.831-.756-12.585 1.909M486 255.999C486 388.546 383.024 496 255.999 496 128.977 496 26 388.546 26 255.999 26 123.454 128.977 16 255.999 16 383.024 16 486 123.454 486 255.999" style="fill:#231f20;fill-rule:nonzero"/>
</svg>
